<svg width="1200" height="350" viewBox="0 0 1200 350" fill="none" xmlns="http://www.w3.org/2000/svg">
<path d="M793.073 232.751C767.219 232.751 751.983 218.285 751.368 196.74H777.222C777.222 205.05 783.531 210.59 793.227 210.59C802.768 210.59 808.924 205.204 808.924 196.74C808.924 188.738 803.384 184.429 795.535 184.429H781.069V165.038H793.38C802.46 165.038 807.385 160.113 807.385 152.88C807.385 145.34 801.845 141.031 793.38 141.031C784.301 141.031 778.607 146.109 778.145 154.265H752.137C752.753 132.72 769.219 118.87 794.458 118.87C818.003 118.87 833.854 130.566 833.854 149.187C833.854 160.575 827.699 169.809 818.619 173.348V174.272C829.391 177.349 835.393 187.045 835.393 199.202C835.393 219.362 818.157 232.751 793.073 232.751Z" fill="white"/>
<path d="M641.992 231.212V119.024H669.539V162.729H717.399V119.024H744.946V231.212H717.399V186.121H669.539V231.212H641.992Z" fill="white"/>
<path d="M582.489 232.752C548.324 232.752 525.548 211.976 525.548 175.042C525.548 138.261 548.324 117.485 582.489 117.485C611.728 117.485 632.658 133.798 635.428 158.113H607.419C604.957 148.11 595.416 141.031 582.489 141.031C565.099 141.031 553.864 151.65 553.864 175.042C553.864 198.587 565.099 209.206 582.489 209.206C594.954 209.206 605.265 202.435 607.419 191.97H635.428C632.658 216.439 611.267 232.752 582.489 232.752Z" fill="white"/>
<path d="M424.332 231.212V119.024H481.273C508.358 119.024 521.439 130.719 521.439 151.803C521.439 165.192 513.898 175.656 502.048 178.426V179.504C513.129 181.812 518.669 188.583 518.669 201.049V217.977C518.669 222.132 518.669 226.749 520.515 231.212H492.815C491.584 228.596 490.968 223.825 490.968 217.977V205.819C490.968 197.047 487.736 191.969 475.271 191.969H451.879V231.212H424.332ZM451.879 170.27H477.271C488.66 170.27 493.122 164.114 493.122 155.65C493.122 145.339 486.659 141.646 477.271 141.646H451.879V170.27Z" fill="white"/>
<path d="M332.892 231.212V119.024H415.995V142.57H360.439V163.346H408.3V185.352H360.439V207.667H416.456V231.212H332.892Z" fill="white"/>
<g filter="url(#filter0_d_213_331)">
<path d="M1088.82 174.411L1044.35 169.737C1043.82 169.681 1043.35 170.063 1043.29 170.589L1041.91 183.768C1041.85 184.294 1042.24 184.765 1042.76 184.82L1072.38 187.933C1072.9 187.988 1073.28 188.459 1073.23 188.985L1070.28 217.023C1070.22 217.549 1070.61 218.02 1071.13 218.075L1084.09 219.437C1084.61 219.492 1085.08 219.11 1085.14 218.585L1089.67 175.463C1089.73 174.937 1089.34 174.466 1088.82 174.411Z" fill="url(#paint0_linear_213_331)"/>
<path fill-rule="evenodd" clip-rule="evenodd" d="M852.354 120.463C852.409 119.938 852.88 119.556 853.405 119.611L941.553 128.876C942.079 128.931 942.46 129.402 942.405 129.928L939.46 157.943C939.405 158.468 939.786 158.939 940.312 158.995L953.812 160.413C954.338 160.469 954.809 160.087 954.864 159.562L957.808 131.547C957.863 131.021 958.334 130.64 958.86 130.695L1047.01 139.96C1047.53 140.015 1047.91 140.486 1047.86 141.012L1038.59 229.159C1038.54 229.685 1038.07 230.066 1037.54 230.011L949.395 220.746C948.87 220.691 948.488 220.22 948.544 219.694L953.076 176.573C953.131 176.047 952.75 175.576 952.224 175.521L938.724 174.102C938.199 174.047 937.728 174.428 937.672 174.954L933.14 218.076C933.085 218.601 932.614 218.983 932.088 218.927L843.941 209.663C843.415 209.607 843.034 209.136 843.089 208.611L852.354 120.463Z" fill="url(#paint1_linear_213_331)"/>
<g clip-path="url(#clip0_213_331)" filter="url(#filter1_i_213_331)">
<g filter="url(#filter2_i_213_331)">
<path d="M866.233 136.532L925.477 142.759L919.25 202.003L860.006 195.776L866.233 136.532Z" fill="white"/>
</g>
<path d="M866.233 136.532L895.855 139.646L889.628 198.89L860.006 195.776L866.233 136.532Z" fill="black"/>
<path opacity="0.6" d="M866.233 136.532L895.855 139.643L892.539 171.221L864.002 157.777L866.233 136.532Z" fill="url(#paint2_linear_213_331)"/>
</g>
<g clip-path="url(#clip1_213_331)" filter="url(#filter3_i_213_331)">
<g filter="url(#filter4_i_213_331)">
<path d="M971.551 147.462L1030.79 153.688L1024.57 212.933L965.324 206.706L971.551 147.462Z" fill="white"/>
</g>
<path d="M971.691 147.617L1001.31 150.73L995.087 209.974L965.465 206.861L971.691 147.617Z" fill="black"/>
<path opacity="0.6" d="M971.691 147.617L1001.31 150.728L997.997 182.306L969.46 168.861L971.691 147.617Z" fill="url(#paint3_linear_213_331)"/>
</g>
</g>
<path d="M340.424 202.164C340.013 204.971 338.462 207.205 336.792 209.361C333.953 213.02 330.559 216.111 326.95 219.001C323.647 221.646 320.476 224.452 317.178 227.105C311.747 231.471 306.245 235.765 300.251 239.337C296.361 241.658 292.306 243.758 287.9 244.948C284.955 245.742 281.944 246.334 278.93 246.802C275.31 247.362 271.675 247.375 268.178 246.016C264.877 244.733 262.33 242.497 260.392 239.586C258.076 236.11 257.226 232.225 257.545 228.096C258.052 221.539 259.053 215.041 260.83 208.716C262.272 203.583 263.961 198.497 265.878 193.521C268.236 187.402 270.825 181.364 273.545 175.394C275.688 170.688 278.078 166.086 280.545 161.537C284.039 155.098 287.64 148.711 291.329 142.38C293.671 138.36 296.249 134.48 298.735 130.544C299.266 129.703 299.85 128.89 300.281 127.868C300.031 127.966 299.749 128.019 299.54 128.17C295.293 131.24 290.983 134.233 286.836 137.43C283.662 139.879 280.664 142.555 277.647 145.198C274.469 147.981 271.343 150.827 268.225 153.682C265.687 156.008 263.159 158.345 260.694 160.749C255.349 165.961 249.998 171.172 244.745 176.48C241.601 179.656 238.605 182.978 235.607 186.292C232.832 189.359 230.15 192.512 227.415 195.616C224.451 198.98 221.541 202.398 218.471 205.662C216.395 207.869 213.795 209.345 210.826 210.128C208.383 210.774 206.017 209.871 204.53 207.815C202.62 205.179 202.421 202.3 203.404 199.363C204.503 196.07 205.77 192.825 207.108 189.62C209.825 183.119 212.56 176.626 215.444 170.197C217.544 165.515 219.895 160.945 222.125 156.322C222.659 155.217 223.15 154.091 223.827 152.615C222.391 153.385 221.14 153.924 220.03 154.67C215.542 157.7 211.022 160.69 206.665 163.898C203.449 166.267 200.405 168.888 197.394 171.519C193.806 174.653 190.298 177.882 186.82 181.141C182.9 184.81 179.02 188.523 175.186 192.281C168.534 198.805 161.913 205.362 155.314 211.94C152.237 215.009 149.217 218.14 146.206 221.274C143.901 223.672 141.625 226.099 139.378 228.553C136.63 231.559 133.903 234.581 131.218 237.64C128.318 240.943 125.495 244.313 122.601 247.619C119.783 250.835 116.782 253.849 113.367 256.468C111.814 257.657 110.465 259.078 108.484 259.556C104.803 260.44 101.975 259.139 100.374 255.65C99.1575 253 99.4788 250.246 100.031 247.524C101.093 242.266 103.701 237.669 106.33 233.08C108.476 229.339 110.475 225.517 112.661 221.8C115.29 217.328 118.014 212.911 120.758 208.509C123.785 203.652 126.812 198.789 129.967 194.015C134.094 187.771 138.263 181.552 142.576 175.436C146.74 169.53 151.06 163.731 155.402 157.955C158.631 153.658 161.974 149.447 165.331 145.248C167.594 142.415 169.984 139.682 172.286 136.881C174.992 133.59 177.639 130.252 180.367 126.978C182.018 124.994 183.739 123.064 185.487 121.165C187.279 119.218 189.032 117.214 191.002 115.461C193.99 112.803 197.059 110.216 200.27 107.837C202.53 106.161 205.132 105.07 208.096 105.232C212.308 105.46 214.56 109.021 213.864 112.728C213.216 116.191 211.219 118.94 209.23 121.656C206.744 125.055 204.094 128.34 201.404 131.58C198.188 135.457 194.847 139.231 191.57 143.057C188.886 146.191 186.166 149.295 183.551 152.487C180.977 155.629 178.513 158.855 176.014 162.055C173.587 165.165 171.173 168.288 168.762 171.411C168.454 171.809 168.188 172.239 168.058 172.799C168.204 172.73 168.377 172.691 168.491 172.584C169.782 171.389 171.048 170.168 172.35 168.981C176.545 165.157 180.669 161.248 184.979 157.554C189.358 153.802 193.798 150.1 198.44 146.687C202.822 143.466 207.44 140.553 212.069 137.688C214.618 136.108 217.337 134.756 220.099 133.572C223.793 131.986 227.67 130.972 231.675 130.42C234.123 130.082 236.444 130.167 238.752 131.123C242.222 132.56 244.31 135.152 245.266 138.702C246.134 141.929 245.542 145.121 244.902 148.299C244.806 148.78 244.764 149.271 244.65 150.095C245.064 149.712 245.242 149.553 245.414 149.388C247.735 147.147 250.011 144.86 252.382 142.678C256.395 138.981 260.389 135.255 264.532 131.71C269.726 127.267 274.931 122.817 280.383 118.703C284.74 115.416 289.38 112.468 294.075 109.674C297.856 107.423 301.871 105.545 305.857 103.665C307.241 103.012 308.837 102.773 310.361 102.47C313.088 101.928 315.741 102.287 318.293 103.381C320.564 104.355 322.292 105.893 323.533 108.071C324.98 110.609 325.625 113.339 325.298 116.167C325.017 118.616 324.454 121.08 323.641 123.409C322.056 127.953 319.653 132.101 317.074 136.166C314.246 140.628 311.625 145.222 308.903 149.755C306.545 153.68 304.142 157.578 301.823 161.527C300.469 163.834 299.224 166.206 297.973 168.572C296.026 172.258 294.021 175.917 292.213 179.669C288.633 187.086 285.104 194.538 282.552 202.388C280.821 207.715 279.164 213.076 277.775 218.499C276.97 221.646 276.763 224.946 276.229 228.555C278.399 228.04 280.189 227.729 281.907 227.188C287.005 225.586 291.56 222.912 295.835 219.763C298.857 217.537 301.81 215.214 304.766 212.901C307.464 210.79 310.13 208.636 312.799 206.488C315.295 204.477 317.709 202.356 320.282 200.449C323.817 197.831 327.529 195.496 331.868 194.373C335.119 193.529 339.208 195.18 340.098 197.833C340.369 198.5 340.557 201.134 340.424 202.154" fill="white"/>
<defs>
<filter id="filter0_d_213_331" x="840.606" y="117.128" width="260.984" height="126.485" filterUnits="userSpaceOnUse" color-interpolation-filters="sRGB">
<feFlood flood-opacity="0" result="BackgroundImageFix"/>
<feColorMatrix in="SourceAlpha" type="matrix" values="0 0 0 0 0 0 0 0 0 0 0 0 0 0 0 0 0 0 127 0" result="hardAlpha"/>
<feOffset dx="4.76564" dy="4.76564"/>
<feGaussianBlur stdDeviation="3.57423"/>
<feComposite in2="hardAlpha" operator="out"/>
<feColorMatrix type="matrix" values="0 0 0 0 0 0 0 0 0 0 0 0 0 0 0 0 0 0 0.15 0"/>
<feBlend mode="normal" in2="BackgroundImageFix" result="effect1_dropShadow_213_331"/>
<feBlend mode="normal" in="SourceGraphic" in2="effect1_dropShadow_213_331" result="shape"/>
</filter>
<filter id="filter1_i_213_331" x="855.957" y="136.531" width="69.5218" height="69.5219" filterUnits="userSpaceOnUse" color-interpolation-filters="sRGB">
<feFlood flood-opacity="0" result="BackgroundImageFix"/>
<feBlend mode="normal" in="SourceGraphic" in2="BackgroundImageFix" result="shape"/>
<feColorMatrix in="SourceAlpha" type="matrix" values="0 0 0 0 0 0 0 0 0 0 0 0 0 0 0 0 0 0 127 0" result="hardAlpha"/>
<feOffset dx="-4.05082" dy="4.05082"/>
<feGaussianBlur stdDeviation="2.83558"/>
<feComposite in2="hardAlpha" operator="arithmetic" k2="-1" k3="1"/>
<feColorMatrix type="matrix" values="0 0 0 0 0 0 0 0 0 0 0 0 0 0 0 0 0 0 0.2 0"/>
<feBlend mode="normal" in2="shape" result="effect1_innerShadow_213_331"/>
</filter>
<filter id="filter2_i_213_331" x="860.006" y="130.051" width="65.471" height="71.9524" filterUnits="userSpaceOnUse" color-interpolation-filters="sRGB">
<feFlood flood-opacity="0" result="BackgroundImageFix"/>
<feBlend mode="normal" in="SourceGraphic" in2="BackgroundImageFix" result="shape"/>
<feColorMatrix in="SourceAlpha" type="matrix" values="0 0 0 0 0 0 0 0 0 0 0 0 0 0 0 0 0 0 127 0" result="hardAlpha"/>
<feOffset dy="-6.48132"/>
<feGaussianBlur stdDeviation="4.05082"/>
<feComposite in2="hardAlpha" operator="arithmetic" k2="-1" k3="1"/>
<feColorMatrix type="matrix" values="0 0 0 0 0 0 0 0 0 0 0 0 0 0 0 0 0 0 0.1 0"/>
<feBlend mode="normal" in2="shape" result="effect1_innerShadow_213_331"/>
</filter>
<filter id="filter3_i_213_331" x="961.414" y="147.617" width="69.5219" height="69.5219" filterUnits="userSpaceOnUse" color-interpolation-filters="sRGB">
<feFlood flood-opacity="0" result="BackgroundImageFix"/>
<feBlend mode="normal" in="SourceGraphic" in2="BackgroundImageFix" result="shape"/>
<feColorMatrix in="SourceAlpha" type="matrix" values="0 0 0 0 0 0 0 0 0 0 0 0 0 0 0 0 0 0 127 0" result="hardAlpha"/>
<feOffset dx="-4.05082" dy="4.05082"/>
<feGaussianBlur stdDeviation="2.83558"/>
<feComposite in2="hardAlpha" operator="arithmetic" k2="-1" k3="1"/>
<feColorMatrix type="matrix" values="0 0 0 0 0 0 0 0 0 0 0 0 0 0 0 0 0 0 0.2 0"/>
<feBlend mode="normal" in2="shape" result="effect1_innerShadow_213_331"/>
</filter>
<filter id="filter4_i_213_331" x="965.324" y="140.98" width="65.4711" height="71.9524" filterUnits="userSpaceOnUse" color-interpolation-filters="sRGB">
<feFlood flood-opacity="0" result="BackgroundImageFix"/>
<feBlend mode="normal" in="SourceGraphic" in2="BackgroundImageFix" result="shape"/>
<feColorMatrix in="SourceAlpha" type="matrix" values="0 0 0 0 0 0 0 0 0 0 0 0 0 0 0 0 0 0 127 0" result="hardAlpha"/>
<feOffset dy="-6.48132"/>
<feGaussianBlur stdDeviation="4.05082"/>
<feComposite in2="hardAlpha" operator="arithmetic" k2="-1" k3="1"/>
<feColorMatrix type="matrix" values="0 0 0 0 0 0 0 0 0 0 0 0 0 0 0 0 0 0 0.1 0"/>
<feBlend mode="normal" in2="shape" result="effect1_innerShadow_213_331"/>
</filter>
<linearGradient id="paint0_linear_213_331" x1="1019.6" y1="164.905" x2="1061.85" y2="217.099" gradientUnits="userSpaceOnUse">
<stop stop-color="#E71D36"/>
<stop offset="1" stop-color="#B01B2D"/>
</linearGradient>
<linearGradient id="paint1_linear_213_331" x1="950.207" y1="129.786" x2="940.742" y2="219.837" gradientUnits="userSpaceOnUse">
<stop stop-color="#E71D36"/>
<stop offset="1" stop-color="#B01B2D"/>
</linearGradient>
<linearGradient id="paint2_linear_213_331" x1="881.95" y1="176.049" x2="875.997" y2="119.504" gradientUnits="userSpaceOnUse">
<stop stop-color="white" stop-opacity="0"/>
<stop offset="1" stop-color="white"/>
</linearGradient>
<linearGradient id="paint3_linear_213_331" x1="987.409" y1="187.134" x2="981.456" y2="130.588" gradientUnits="userSpaceOnUse">
<stop stop-color="white" stop-opacity="0"/>
<stop offset="1" stop-color="white"/>
</linearGradient>
<clipPath id="clip0_213_331">
<rect width="59.5706" height="59.5706" fill="white" transform="translate(866.234 136.531) rotate(6)"/>
</clipPath>
<clipPath id="clip1_213_331">
<rect width="59.5706" height="59.5706" fill="white" transform="translate(971.692 147.617) rotate(6)"/>
</clipPath>
</defs>
</svg>
