<?xml version="1.0" encoding="UTF-8"?>
<svg xmlns="http://www.w3.org/2000/svg" xmlns:xlink="http://www.w3.org/1999/xlink" viewBox="0 0 45.1 27.83">
  <defs>
    <style>
      .cls-1 {
        fill: #1d1d1b;
      }

      .cls-2 {
        fill: #fff;
      }

      .cls-3 {
        fill: none;
      }

      .cls-4 {
        isolation: isolate;
      }

      .cls-5 {
        mix-blend-mode: multiply;
      }

      .cls-6 {
        clip-path: url(#clippath);
      }
    </style>
    <clipPath id="clippath">
      <rect class="cls-3" x=".42" y=".42" width="44.67" height="27.41"/>
    </clipPath>
  </defs>
  <g class="cls-4">
    <g id="Capa_2" data-name="Capa 2">
      <g id="Capa_1-2" data-name="Capa 1">
        <g class="cls-5">
          <g class="cls-6">
            <path class="cls-1" d="M31.4,4.34h-11.7c-.49,0-.88.39-.88.88v5.14h-3.82V2.19h12.94c.49,0,.88-.39.88-.88s-.4-.88-.88-.88h-13.86c-.48.03-.84.51-.84.88v9.94c0,.49.4.88.88.88h11.7c.49,0,.88-.4.88-.88v-5.14h3.82v8.17h-13.33c-.49,0-.88.4-.88.88s.4.88.88.88h14.21c.49,0,.88-.4.88-.88V5.22c0-.49-.39-.88-.88-.88M24.94,10.36h-4.35v-4.25h4.35v4.25Z"/>
            <path class="cls-1" d="M.43,27.23v-.91h3.6c.23,0,.35-.12.35-.35v-.93c0-.22-.1-.35-.29-.38l-2.26-.18c-.93-.18-1.39-.72-1.39-1.78v-.94c0-1.3.65-1.95,1.95-1.95h3.44v1.51h-3.37c-.23,0-.35.12-.35.35v.89c0,.22.1.34.29.38l2.26.16c.93.19,1.39.67,1.39,1.73v1.03c0,1.3-.65,1.95-1.95,1.95H.43v-.6Z"/>
            <polygon class="cls-1" points="6.88 19.82 8.58 19.82 9.87 26.32 10 26.32 11.38 20.58 13.03 20.58 14.41 26.32 14.54 26.32 15.83 19.82 17.52 19.82 15.86 27.83 13.2 27.83 12.2 23.59 11.2 27.83 8.54 27.83 6.88 19.82"/>
            <path class="cls-1" d="M19.7,19.82h2.56l2.5,8.01h-1.72l-.49-1.63h-3.13l-.49,1.63h-1.71l2.49-8.01ZM19.87,24.69h2.23l-1.02-3.37h-.18l-1.02,3.37Z"/>
            <path class="cls-1" d="M25.69,25.88v-4.11c0-1.3.65-1.95,1.95-1.95h4.14v1.51h-4.07c-.23,0-.35.12-.35.35v4.3c0,.23.12.35.35.35h2.62v-1.86h-1.53v-1.51h3.21v4.88h-4.37c-1.3,0-1.95-.65-1.95-1.95"/>
            <polygon class="cls-1" points="33.68 27.83 33.68 19.82 35.35 19.82 35.35 26.32 38.81 26.32 38.81 27.83 33.68 27.83"/>
            <polygon class="cls-1" points="38.11 19.82 39.88 19.82 41.62 23.22 43.36 19.82 45.1 19.82 42.46 25 42.46 27.83 40.78 27.83 40.78 25 38.11 19.82"/>
          </g>
        </g>
        <path class="cls-2" d="M30.98,3.92h-11.7c-.49,0-.88.4-.88.88v5.14h-3.82V1.76h12.94c.49,0,.88-.4.88-.88s-.4-.88-.88-.88h-13.86c-.48.03-.84.51-.84.88v9.94c0,.49.4.88.88.88h11.7c.49,0,.88-.4.88-.88v-5.14h3.82v8.17h-13.33c-.49,0-.88.39-.88.88s.4.88.88.88h14.21c.49,0,.88-.4.88-.88V4.8c0-.49-.4-.88-.88-.88M24.51,9.94h-4.35v-4.25h4.35v4.25Z"/>
        <path class="cls-2" d="M0,26.8v-.91h3.6c.23,0,.35-.12.35-.35v-.93c0-.22-.1-.35-.29-.38l-2.26-.18c-.93-.18-1.39-.72-1.39-1.78v-.94c0-1.3.65-1.95,1.95-1.95h3.44v1.51h-3.37c-.23,0-.35.12-.35.35v.89c0,.22.1.34.29.38l2.26.16c.93.19,1.39.67,1.39,1.73v1.03c0,1.3-.65,1.95-1.95,1.95H0v-.6Z"/>
        <polygon class="cls-2" points="6.46 19.39 8.15 19.39 9.44 25.89 9.57 25.89 10.95 20.16 12.6 20.16 13.98 25.89 14.11 25.89 15.4 19.39 17.1 19.39 15.44 27.4 12.78 27.4 11.78 23.16 10.78 27.4 8.12 27.4 6.46 19.39"/>
        <path class="cls-2" d="M19.28,19.39h2.56l2.5,8.01h-1.72l-.49-1.63h-3.13l-.49,1.63h-1.71l2.49-8.01ZM19.44,24.27h2.23l-1.02-3.37h-.18l-1.02,3.37Z"/>
        <path class="cls-2" d="M25.26,25.45v-4.11c0-1.3.65-1.95,1.95-1.95h4.14v1.51h-4.07c-.23,0-.35.12-.35.35v4.3c0,.23.12.35.35.35h2.62v-1.86h-1.53v-1.51h3.21v4.88h-4.37c-1.3,0-1.95-.65-1.95-1.95"/>
        <polygon class="cls-2" points="33.25 27.4 33.25 19.39 34.92 19.39 34.92 25.89 38.38 25.89 38.38 27.4 33.25 27.4"/>
        <polygon class="cls-2" points="37.68 19.39 39.45 19.39 41.19 22.79 42.94 19.39 44.67 19.39 42.03 24.57 42.03 27.4 40.36 27.4 40.36 24.57 37.68 19.39"/>
      </g>
    </g>
  </g>
</svg>